<?xml version="1.0" encoding="utf-8" standalone="no"?>
<!DOCTYPE svg PUBLIC "-//W3C//DTD SVG 1.1//EN"
  "http://www.w3.org/Graphics/SVG/1.1/DTD/svg11.dtd">
<!-- Created with matplotlib (http://matplotlib.org/) -->
<svg height="345pt" version="1.1" viewBox="0 0 460 345" width="460pt" xmlns="http://www.w3.org/2000/svg" xmlns:xlink="http://www.w3.org/1999/xlink">
 <defs>
  <style type="text/css">
*{stroke-linecap:butt;stroke-linejoin:round;}
  </style>
 </defs>
 <g id="figure_1">
  <g id="patch_1">
   <path d="M 0 345.6 
L 460.8 345.6 
L 460.8 0 
L 0 0 
z
" style="fill:#ffffff;"/>
  </g>
  <g id="axes_1">
   <g id="patch_2">
    <path d="M 57.6 307.584 
L 414.72 307.584 
L 414.72 41.472 
L 57.6 41.472 
z
" style="fill:#ffffff;"/>
   </g>
   <g id="matplotlib.axis_1">
    <g id="xtick_1">
     <g id="line2d_1">
      <defs>
       <path d="M 0 0 
L 0 3.5 
" id="mcbdc5a34a9" style="stroke:#000000;stroke-width:0.8;"/>
      </defs>
      <g>
       <use style="stroke:#000000;stroke-width:0.8;" x="73.832727" xlink:href="#mcbdc5a34a9" y="307.584"/>
      </g>
     </g>
     <g id="text_1">
      <!-- 1.0 -->
      <defs>
       <path d="M 12.40625 8.296875 
L 28.515625 8.296875 
L 28.515625 63.921875 
L 10.984375 60.40625 
L 10.984375 69.390625 
L 28.421875 72.90625 
L 38.28125 72.90625 
L 38.28125 8.296875 
L 54.390625 8.296875 
L 54.390625 0 
L 12.40625 0 
z
" id="DejaVuSans-31"/>
       <path d="M 10.6875 12.40625 
L 21 12.40625 
L 21 0 
L 10.6875 0 
z
" id="DejaVuSans-2e"/>
       <path d="M 31.78125 66.40625 
Q 24.171875 66.40625 20.328125 58.90625 
Q 16.5 51.421875 16.5 36.375 
Q 16.5 21.390625 20.328125 13.890625 
Q 24.171875 6.390625 31.78125 6.390625 
Q 39.453125 6.390625 43.28125 13.890625 
Q 47.125 21.390625 47.125 36.375 
Q 47.125 51.421875 43.28125 58.90625 
Q 39.453125 66.40625 31.78125 66.40625 
z
M 31.78125 74.21875 
Q 44.046875 74.21875 50.515625 64.515625 
Q 56.984375 54.828125 56.984375 36.375 
Q 56.984375 17.96875 50.515625 8.265625 
Q 44.046875 -1.421875 31.78125 -1.421875 
Q 19.53125 -1.421875 13.0625 8.265625 
Q 6.59375 17.96875 6.59375 36.375 
Q 6.59375 54.828125 13.0625 64.515625 
Q 19.53125 74.21875 31.78125 74.21875 
z
" id="DejaVuSans-30"/>
      </defs>
      <g transform="translate(65.881165 322.182437)scale(0.1 -0.1)">
       <use xlink:href="#DejaVuSans-31"/>
       <use x="63.623047" xlink:href="#DejaVuSans-2e"/>
       <use x="95.410156" xlink:href="#DejaVuSans-30"/>
      </g>
     </g>
    </g>
    <g id="xtick_2">
     <g id="line2d_2">
      <g>
       <use style="stroke:#000000;stroke-width:0.8;" x="114.414545" xlink:href="#mcbdc5a34a9" y="307.584"/>
      </g>
     </g>
     <g id="text_2">
      <!-- 1.5 -->
      <defs>
       <path d="M 10.796875 72.90625 
L 49.515625 72.90625 
L 49.515625 64.59375 
L 19.828125 64.59375 
L 19.828125 46.734375 
Q 21.96875 47.46875 24.109375 47.828125 
Q 26.265625 48.1875 28.421875 48.1875 
Q 40.625 48.1875 47.75 41.5 
Q 54.890625 34.8125 54.890625 23.390625 
Q 54.890625 11.625 47.5625 5.09375 
Q 40.234375 -1.421875 26.90625 -1.421875 
Q 22.3125 -1.421875 17.546875 -0.640625 
Q 12.796875 0.140625 7.71875 1.703125 
L 7.71875 11.625 
Q 12.109375 9.234375 16.796875 8.0625 
Q 21.484375 6.890625 26.703125 6.890625 
Q 35.15625 6.890625 40.078125 11.328125 
Q 45.015625 15.765625 45.015625 23.390625 
Q 45.015625 31 40.078125 35.4375 
Q 35.15625 39.890625 26.703125 39.890625 
Q 22.75 39.890625 18.8125 39.015625 
Q 14.890625 38.140625 10.796875 36.28125 
z
" id="DejaVuSans-35"/>
      </defs>
      <g transform="translate(106.462983 322.182437)scale(0.1 -0.1)">
       <use xlink:href="#DejaVuSans-31"/>
       <use x="63.623047" xlink:href="#DejaVuSans-2e"/>
       <use x="95.410156" xlink:href="#DejaVuSans-35"/>
      </g>
     </g>
    </g>
    <g id="xtick_3">
     <g id="line2d_3">
      <g>
       <use style="stroke:#000000;stroke-width:0.8;" x="154.996364" xlink:href="#mcbdc5a34a9" y="307.584"/>
      </g>
     </g>
     <g id="text_3">
      <!-- 2.0 -->
      <defs>
       <path d="M 19.1875 8.296875 
L 53.609375 8.296875 
L 53.609375 0 
L 7.328125 0 
L 7.328125 8.296875 
Q 12.9375 14.109375 22.625 23.890625 
Q 32.328125 33.6875 34.8125 36.53125 
Q 39.546875 41.84375 41.421875 45.53125 
Q 43.3125 49.21875 43.3125 52.78125 
Q 43.3125 58.59375 39.234375 62.25 
Q 35.15625 65.921875 28.609375 65.921875 
Q 23.96875 65.921875 18.8125 64.3125 
Q 13.671875 62.703125 7.8125 59.421875 
L 7.8125 69.390625 
Q 13.765625 71.78125 18.9375 73 
Q 24.125 74.21875 28.421875 74.21875 
Q 39.75 74.21875 46.484375 68.546875 
Q 53.21875 62.890625 53.21875 53.421875 
Q 53.21875 48.921875 51.53125 44.890625 
Q 49.859375 40.875 45.40625 35.40625 
Q 44.1875 33.984375 37.640625 27.21875 
Q 31.109375 20.453125 19.1875 8.296875 
z
" id="DejaVuSans-32"/>
      </defs>
      <g transform="translate(147.044801 322.182437)scale(0.1 -0.1)">
       <use xlink:href="#DejaVuSans-32"/>
       <use x="63.623047" xlink:href="#DejaVuSans-2e"/>
       <use x="95.410156" xlink:href="#DejaVuSans-30"/>
      </g>
     </g>
    </g>
    <g id="xtick_4">
     <g id="line2d_4">
      <g>
       <use style="stroke:#000000;stroke-width:0.8;" x="195.578182" xlink:href="#mcbdc5a34a9" y="307.584"/>
      </g>
     </g>
     <g id="text_4">
      <!-- 2.5 -->
      <g transform="translate(187.626619 322.182437)scale(0.1 -0.1)">
       <use xlink:href="#DejaVuSans-32"/>
       <use x="63.623047" xlink:href="#DejaVuSans-2e"/>
       <use x="95.410156" xlink:href="#DejaVuSans-35"/>
      </g>
     </g>
    </g>
    <g id="xtick_5">
     <g id="line2d_5">
      <g>
       <use style="stroke:#000000;stroke-width:0.8;" x="236.16" xlink:href="#mcbdc5a34a9" y="307.584"/>
      </g>
     </g>
     <g id="text_5">
      <!-- 3.0 -->
      <defs>
       <path d="M 40.578125 39.3125 
Q 47.65625 37.796875 51.625 33 
Q 55.609375 28.21875 55.609375 21.1875 
Q 55.609375 10.40625 48.1875 4.484375 
Q 40.765625 -1.421875 27.09375 -1.421875 
Q 22.515625 -1.421875 17.65625 -0.515625 
Q 12.796875 0.390625 7.625 2.203125 
L 7.625 11.71875 
Q 11.71875 9.328125 16.59375 8.109375 
Q 21.484375 6.890625 26.8125 6.890625 
Q 36.078125 6.890625 40.9375 10.546875 
Q 45.796875 14.203125 45.796875 21.1875 
Q 45.796875 27.640625 41.28125 31.265625 
Q 36.765625 34.90625 28.71875 34.90625 
L 20.21875 34.90625 
L 20.21875 43.015625 
L 29.109375 43.015625 
Q 36.375 43.015625 40.234375 45.921875 
Q 44.09375 48.828125 44.09375 54.296875 
Q 44.09375 59.90625 40.109375 62.90625 
Q 36.140625 65.921875 28.71875 65.921875 
Q 24.65625 65.921875 20.015625 65.03125 
Q 15.375 64.15625 9.8125 62.3125 
L 9.8125 71.09375 
Q 15.4375 72.65625 20.34375 73.4375 
Q 25.25 74.21875 29.59375 74.21875 
Q 40.828125 74.21875 47.359375 69.109375 
Q 53.90625 64.015625 53.90625 55.328125 
Q 53.90625 49.265625 50.4375 45.09375 
Q 46.96875 40.921875 40.578125 39.3125 
z
" id="DejaVuSans-33"/>
      </defs>
      <g transform="translate(228.208437 322.182437)scale(0.1 -0.1)">
       <use xlink:href="#DejaVuSans-33"/>
       <use x="63.623047" xlink:href="#DejaVuSans-2e"/>
       <use x="95.410156" xlink:href="#DejaVuSans-30"/>
      </g>
     </g>
    </g>
    <g id="xtick_6">
     <g id="line2d_6">
      <g>
       <use style="stroke:#000000;stroke-width:0.8;" x="276.741818" xlink:href="#mcbdc5a34a9" y="307.584"/>
      </g>
     </g>
     <g id="text_6">
      <!-- 3.5 -->
      <g transform="translate(268.790256 322.182437)scale(0.1 -0.1)">
       <use xlink:href="#DejaVuSans-33"/>
       <use x="63.623047" xlink:href="#DejaVuSans-2e"/>
       <use x="95.410156" xlink:href="#DejaVuSans-35"/>
      </g>
     </g>
    </g>
    <g id="xtick_7">
     <g id="line2d_7">
      <g>
       <use style="stroke:#000000;stroke-width:0.8;" x="317.323636" xlink:href="#mcbdc5a34a9" y="307.584"/>
      </g>
     </g>
     <g id="text_7">
      <!-- 4.0 -->
      <defs>
       <path d="M 37.796875 64.3125 
L 12.890625 25.390625 
L 37.796875 25.390625 
z
M 35.203125 72.90625 
L 47.609375 72.90625 
L 47.609375 25.390625 
L 58.015625 25.390625 
L 58.015625 17.1875 
L 47.609375 17.1875 
L 47.609375 0 
L 37.796875 0 
L 37.796875 17.1875 
L 4.890625 17.1875 
L 4.890625 26.703125 
z
" id="DejaVuSans-34"/>
      </defs>
      <g transform="translate(309.372074 322.182437)scale(0.1 -0.1)">
       <use xlink:href="#DejaVuSans-34"/>
       <use x="63.623047" xlink:href="#DejaVuSans-2e"/>
       <use x="95.410156" xlink:href="#DejaVuSans-30"/>
      </g>
     </g>
    </g>
    <g id="xtick_8">
     <g id="line2d_8">
      <g>
       <use style="stroke:#000000;stroke-width:0.8;" x="357.905455" xlink:href="#mcbdc5a34a9" y="307.584"/>
      </g>
     </g>
     <g id="text_8">
      <!-- 4.5 -->
      <g transform="translate(349.953892 322.182437)scale(0.1 -0.1)">
       <use xlink:href="#DejaVuSans-34"/>
       <use x="63.623047" xlink:href="#DejaVuSans-2e"/>
       <use x="95.410156" xlink:href="#DejaVuSans-35"/>
      </g>
     </g>
    </g>
    <g id="xtick_9">
     <g id="line2d_9">
      <g>
       <use style="stroke:#000000;stroke-width:0.8;" x="398.487273" xlink:href="#mcbdc5a34a9" y="307.584"/>
      </g>
     </g>
     <g id="text_9">
      <!-- 5.0 -->
      <g transform="translate(390.53571 322.182437)scale(0.1 -0.1)">
       <use xlink:href="#DejaVuSans-35"/>
       <use x="63.623047" xlink:href="#DejaVuSans-2e"/>
       <use x="95.410156" xlink:href="#DejaVuSans-30"/>
      </g>
     </g>
    </g>
    <g id="text_10">
     <!-- x -->
     <defs>
      <path d="M 54.890625 54.6875 
L 35.109375 28.078125 
L 55.90625 0 
L 45.3125 0 
L 29.390625 21.484375 
L 13.484375 0 
L 2.875 0 
L 24.125 28.609375 
L 4.6875 54.6875 
L 15.28125 54.6875 
L 29.78125 35.203125 
L 44.28125 54.6875 
z
" id="DejaVuSans-78"/>
     </defs>
     <g transform="translate(233.200625 335.860562)scale(0.1 -0.1)">
      <use xlink:href="#DejaVuSans-78"/>
     </g>
    </g>
   </g>
   <g id="matplotlib.axis_2">
    <g id="ytick_1">
     <g id="line2d_10">
      <defs>
       <path d="M 0 0 
L -3.5 0 
" id="mec1d61eb3d" style="stroke:#000000;stroke-width:0.8;"/>
      </defs>
      <g>
       <use style="stroke:#000000;stroke-width:0.8;" x="57.6" xlink:href="#mec1d61eb3d" y="295.488"/>
      </g>
     </g>
     <g id="text_11">
      <!-- 0 -->
      <g transform="translate(44.2375 299.287219)scale(0.1 -0.1)">
       <use xlink:href="#DejaVuSans-30"/>
      </g>
     </g>
    </g>
    <g id="ytick_2">
     <g id="line2d_11">
      <g>
       <use style="stroke:#000000;stroke-width:0.8;" x="57.6" xlink:href="#mec1d61eb3d" y="256.7808"/>
      </g>
     </g>
     <g id="text_12">
      <!-- 20 -->
      <g transform="translate(37.875 260.580019)scale(0.1 -0.1)">
       <use xlink:href="#DejaVuSans-32"/>
       <use x="63.623047" xlink:href="#DejaVuSans-30"/>
      </g>
     </g>
    </g>
    <g id="ytick_3">
     <g id="line2d_12">
      <g>
       <use style="stroke:#000000;stroke-width:0.8;" x="57.6" xlink:href="#mec1d61eb3d" y="218.0736"/>
      </g>
     </g>
     <g id="text_13">
      <!-- 40 -->
      <g transform="translate(37.875 221.872819)scale(0.1 -0.1)">
       <use xlink:href="#DejaVuSans-34"/>
       <use x="63.623047" xlink:href="#DejaVuSans-30"/>
      </g>
     </g>
    </g>
    <g id="ytick_4">
     <g id="line2d_13">
      <g>
       <use style="stroke:#000000;stroke-width:0.8;" x="57.6" xlink:href="#mec1d61eb3d" y="179.3664"/>
      </g>
     </g>
     <g id="text_14">
      <!-- 60 -->
      <defs>
       <path d="M 33.015625 40.375 
Q 26.375 40.375 22.484375 35.828125 
Q 18.609375 31.296875 18.609375 23.390625 
Q 18.609375 15.53125 22.484375 10.953125 
Q 26.375 6.390625 33.015625 6.390625 
Q 39.65625 6.390625 43.53125 10.953125 
Q 47.40625 15.53125 47.40625 23.390625 
Q 47.40625 31.296875 43.53125 35.828125 
Q 39.65625 40.375 33.015625 40.375 
z
M 52.59375 71.296875 
L 52.59375 62.3125 
Q 48.875 64.0625 45.09375 64.984375 
Q 41.3125 65.921875 37.59375 65.921875 
Q 27.828125 65.921875 22.671875 59.328125 
Q 17.53125 52.734375 16.796875 39.40625 
Q 19.671875 43.65625 24.015625 45.921875 
Q 28.375 48.1875 33.59375 48.1875 
Q 44.578125 48.1875 50.953125 41.515625 
Q 57.328125 34.859375 57.328125 23.390625 
Q 57.328125 12.15625 50.6875 5.359375 
Q 44.046875 -1.421875 33.015625 -1.421875 
Q 20.359375 -1.421875 13.671875 8.265625 
Q 6.984375 17.96875 6.984375 36.375 
Q 6.984375 53.65625 15.1875 63.9375 
Q 23.390625 74.21875 37.203125 74.21875 
Q 40.921875 74.21875 44.703125 73.484375 
Q 48.484375 72.75 52.59375 71.296875 
z
" id="DejaVuSans-36"/>
      </defs>
      <g transform="translate(37.875 183.165619)scale(0.1 -0.1)">
       <use xlink:href="#DejaVuSans-36"/>
       <use x="63.623047" xlink:href="#DejaVuSans-30"/>
      </g>
     </g>
    </g>
    <g id="ytick_5">
     <g id="line2d_14">
      <g>
       <use style="stroke:#000000;stroke-width:0.8;" x="57.6" xlink:href="#mec1d61eb3d" y="140.6592"/>
      </g>
     </g>
     <g id="text_15">
      <!-- 80 -->
      <defs>
       <path d="M 31.78125 34.625 
Q 24.75 34.625 20.71875 30.859375 
Q 16.703125 27.09375 16.703125 20.515625 
Q 16.703125 13.921875 20.71875 10.15625 
Q 24.75 6.390625 31.78125 6.390625 
Q 38.8125 6.390625 42.859375 10.171875 
Q 46.921875 13.96875 46.921875 20.515625 
Q 46.921875 27.09375 42.890625 30.859375 
Q 38.875 34.625 31.78125 34.625 
z
M 21.921875 38.8125 
Q 15.578125 40.375 12.03125 44.71875 
Q 8.5 49.078125 8.5 55.328125 
Q 8.5 64.0625 14.71875 69.140625 
Q 20.953125 74.21875 31.78125 74.21875 
Q 42.671875 74.21875 48.875 69.140625 
Q 55.078125 64.0625 55.078125 55.328125 
Q 55.078125 49.078125 51.53125 44.71875 
Q 48 40.375 41.703125 38.8125 
Q 48.828125 37.15625 52.796875 32.3125 
Q 56.78125 27.484375 56.78125 20.515625 
Q 56.78125 9.90625 50.3125 4.234375 
Q 43.84375 -1.421875 31.78125 -1.421875 
Q 19.734375 -1.421875 13.25 4.234375 
Q 6.78125 9.90625 6.78125 20.515625 
Q 6.78125 27.484375 10.78125 32.3125 
Q 14.796875 37.15625 21.921875 38.8125 
z
M 18.3125 54.390625 
Q 18.3125 48.734375 21.84375 45.5625 
Q 25.390625 42.390625 31.78125 42.390625 
Q 38.140625 42.390625 41.71875 45.5625 
Q 45.3125 48.734375 45.3125 54.390625 
Q 45.3125 60.0625 41.71875 63.234375 
Q 38.140625 66.40625 31.78125 66.40625 
Q 25.390625 66.40625 21.84375 63.234375 
Q 18.3125 60.0625 18.3125 54.390625 
z
" id="DejaVuSans-38"/>
      </defs>
      <g transform="translate(37.875 144.458419)scale(0.1 -0.1)">
       <use xlink:href="#DejaVuSans-38"/>
       <use x="63.623047" xlink:href="#DejaVuSans-30"/>
      </g>
     </g>
    </g>
    <g id="ytick_6">
     <g id="line2d_15">
      <g>
       <use style="stroke:#000000;stroke-width:0.8;" x="57.6" xlink:href="#mec1d61eb3d" y="101.952"/>
      </g>
     </g>
     <g id="text_16">
      <!-- 100 -->
      <g transform="translate(31.5125 105.751219)scale(0.1 -0.1)">
       <use xlink:href="#DejaVuSans-31"/>
       <use x="63.623047" xlink:href="#DejaVuSans-30"/>
       <use x="127.246094" xlink:href="#DejaVuSans-30"/>
      </g>
     </g>
    </g>
    <g id="ytick_7">
     <g id="line2d_16">
      <g>
       <use style="stroke:#000000;stroke-width:0.8;" x="57.6" xlink:href="#mec1d61eb3d" y="63.2448"/>
      </g>
     </g>
     <g id="text_17">
      <!-- 120 -->
      <g transform="translate(31.5125 67.044019)scale(0.1 -0.1)">
       <use xlink:href="#DejaVuSans-31"/>
       <use x="63.623047" xlink:href="#DejaVuSans-32"/>
       <use x="127.246094" xlink:href="#DejaVuSans-30"/>
      </g>
     </g>
    </g>
    <g id="text_18">
     <!-- y -->
     <defs>
      <path d="M 32.171875 -5.078125 
Q 28.375 -14.84375 24.75 -17.8125 
Q 21.140625 -20.796875 15.09375 -20.796875 
L 7.90625 -20.796875 
L 7.90625 -13.28125 
L 13.1875 -13.28125 
Q 16.890625 -13.28125 18.9375 -11.515625 
Q 21 -9.765625 23.484375 -3.21875 
L 25.09375 0.875 
L 2.984375 54.6875 
L 12.5 54.6875 
L 29.59375 11.921875 
L 46.6875 54.6875 
L 56.203125 54.6875 
z
" id="DejaVuSans-79"/>
     </defs>
     <g transform="translate(25.432812 177.487375)rotate(-90)scale(0.1 -0.1)">
      <use xlink:href="#DejaVuSans-79"/>
     </g>
    </g>
   </g>
   <g id="line2d_17">
    <path clip-path="url(#p83d2c856b6)" d="M 73.832727 293.55264 
L 77.112066 293.474444 
L 80.391405 293.396247 
L 83.670744 293.318051 
L 86.950083 293.239855 
L 90.229421 293.161658 
L 93.50876 293.083462 
L 96.788099 293.005265 
L 100.067438 292.927069 
L 103.346777 292.848873 
L 106.626116 292.770676 
L 109.905455 292.69248 
L 113.184793 292.614284 
L 116.464132 292.536087 
L 119.743471 292.457891 
L 123.02281 292.379695 
L 126.302149 292.301498 
L 129.581488 292.223302 
L 132.860826 292.145105 
L 136.140165 292.066909 
L 139.419504 291.988713 
L 142.698843 291.910516 
L 145.978182 291.83232 
L 149.257521 291.754124 
L 152.53686 291.675927 
L 155.816198 291.597731 
L 159.095537 291.519535 
L 162.374876 291.441338 
L 165.654215 291.363142 
L 168.933554 291.284945 
L 172.212893 291.206749 
L 175.492231 291.128553 
L 178.77157 291.050356 
L 182.050909 290.97216 
L 185.330248 290.893964 
L 188.609587 290.815767 
L 191.888926 290.737571 
L 195.168264 290.659375 
L 198.447603 290.581178 
L 201.726942 290.502982 
L 205.006281 290.424785 
L 208.28562 290.346589 
L 211.564959 290.268393 
L 214.844298 290.190196 
L 218.123636 290.112 
L 221.402975 290.033804 
L 224.682314 289.955607 
L 227.961653 289.877411 
L 231.240992 289.799215 
L 234.520331 289.721018 
L 237.799669 289.642822 
L 241.079008 289.564625 
L 244.358347 289.486429 
L 247.637686 289.408233 
L 250.917025 289.330036 
L 254.196364 289.25184 
L 257.475702 289.173644 
L 260.755041 289.095447 
L 264.03438 289.017251 
L 267.313719 288.939055 
L 270.593058 288.860858 
L 273.872397 288.782662 
L 277.151736 288.704465 
L 280.431074 288.626269 
L 283.710413 288.548073 
L 286.989752 288.469876 
L 290.269091 288.39168 
L 293.54843 288.313484 
L 296.827769 288.235287 
L 300.107107 288.157091 
L 303.386446 288.078895 
L 306.665785 288.000698 
L 309.945124 287.922502 
L 313.224463 287.844305 
L 316.503802 287.766109 
L 319.78314 287.687913 
L 323.062479 287.609716 
L 326.341818 287.53152 
L 329.621157 287.453324 
L 332.900496 287.375127 
L 336.179835 287.296931 
L 339.459174 287.218735 
L 342.738512 287.140538 
L 346.017851 287.062342 
L 349.29719 286.984145 
L 352.576529 286.905949 
L 355.855868 286.827753 
L 359.135207 286.749556 
L 362.414545 286.67136 
L 365.693884 286.593164 
L 368.973223 286.514967 
L 372.252562 286.436771 
L 375.531901 286.358575 
L 378.81124 286.280378 
L 382.090579 286.202182 
L 385.369917 286.123985 
L 388.649256 286.045789 
L 391.928595 285.967593 
L 395.207934 285.889396 
L 398.487273 285.8112 
" style="fill:none;stroke:#1f77b4;stroke-linecap:square;stroke-width:1.5;"/>
   </g>
   <g id="line2d_18">
    <path clip-path="url(#p83d2c856b6)" d="M 73.832727 295.488 
L 77.112066 295.408245 
L 80.391405 295.325452 
L 83.670744 295.239735 
L 86.950083 295.1512 
L 90.229421 295.059945 
L 93.50876 294.96606 
L 96.788099 294.869632 
L 100.067438 294.770741 
L 103.346777 294.669462 
L 106.626116 294.565865 
L 109.905455 294.460018 
L 113.184793 294.351983 
L 116.464132 294.241821 
L 119.743471 294.129586 
L 123.02281 294.015334 
L 126.302149 293.899113 
L 129.581488 293.780974 
L 132.860826 293.660962 
L 136.140165 293.53912 
L 139.419504 293.415491 
L 142.698843 293.290115 
L 145.978182 293.163029 
L 149.257521 293.03427 
L 152.53686 292.903873 
L 155.816198 292.771873 
L 159.095537 292.6383 
L 162.374876 292.503187 
L 165.654215 292.366562 
L 168.933554 292.228455 
L 172.212893 292.088893 
L 175.492231 291.947902 
L 178.77157 291.805509 
L 182.050909 291.661738 
L 185.330248 291.516613 
L 188.609587 291.370157 
L 191.888926 291.222392 
L 195.168264 291.07334 
L 198.447603 290.923021 
L 201.726942 290.771456 
L 205.006281 290.618665 
L 208.28562 290.464666 
L 211.564959 290.309477 
L 214.844298 290.153117 
L 218.123636 289.995603 
L 221.402975 289.836951 
L 224.682314 289.677178 
L 227.961653 289.5163 
L 231.240992 289.354332 
L 234.520331 289.191289 
L 237.799669 289.027186 
L 241.079008 288.862036 
L 244.358347 288.695855 
L 247.637686 288.528654 
L 250.917025 288.360448 
L 254.196364 288.191248 
L 257.475702 288.021069 
L 260.755041 287.84992 
L 264.03438 287.677815 
L 267.313719 287.504766 
L 270.593058 287.330782 
L 273.872397 287.155876 
L 277.151736 286.980058 
L 280.431074 286.803338 
L 283.710413 286.625727 
L 286.989752 286.447235 
L 290.269091 286.267872 
L 293.54843 286.087647 
L 296.827769 285.90657 
L 300.107107 285.72465 
L 303.386446 285.541896 
L 306.665785 285.358316 
L 309.945124 285.17392 
L 313.224463 284.988715 
L 316.503802 284.802711 
L 319.78314 284.615914 
L 323.062479 284.428334 
L 326.341818 284.239977 
L 329.621157 284.050852 
L 332.900496 283.860966 
L 336.179835 283.670326 
L 339.459174 283.47894 
L 342.738512 283.286814 
L 346.017851 283.093956 
L 349.29719 282.900372 
L 352.576529 282.706069 
L 355.855868 282.511053 
L 359.135207 282.315331 
L 362.414545 282.11891 
L 365.693884 281.921795 
L 368.973223 281.723993 
L 372.252562 281.525509 
L 375.531901 281.326349 
L 378.81124 281.12652 
L 382.090579 280.926027 
L 385.369917 280.724875 
L 388.649256 280.52307 
L 391.928595 280.320618 
L 395.207934 280.117523 
L 398.487273 279.913791 
" style="fill:none;stroke:#00ffff;stroke-linecap:square;stroke-width:1.5;"/>
   </g>
   <g id="line2d_19">
    <path clip-path="url(#p83d2c856b6)" d="M 73.832727 293.55264 
L 77.112066 293.513929 
L 80.391405 293.475963 
L 83.670744 293.438699 
L 86.950083 293.402102 
L 90.229421 293.366136 
L 93.50876 293.330769 
L 96.788099 293.295972 
L 100.067438 293.26172 
L 103.346777 293.227986 
L 106.626116 293.194749 
L 109.905455 293.161987 
L 113.184793 293.129679 
L 116.464132 293.097809 
L 119.743471 293.066358 
L 123.02281 293.03531 
L 126.302149 293.00465 
L 129.581488 292.974364 
L 132.860826 292.944439 
L 136.140165 292.914861 
L 139.419504 292.88562 
L 142.698843 292.856704 
L 145.978182 292.828102 
L 149.257521 292.799805 
L 152.53686 292.771802 
L 155.816198 292.744085 
L 159.095537 292.716645 
L 162.374876 292.689474 
L 165.654215 292.662565 
L 168.933554 292.635909 
L 172.212893 292.6095 
L 175.492231 292.583331 
L 178.77157 292.557396 
L 182.050909 292.531689 
L 185.330248 292.506203 
L 188.609587 292.480933 
L 191.888926 292.455874 
L 195.168264 292.43102 
L 198.447603 292.406366 
L 201.726942 292.381908 
L 205.006281 292.357642 
L 208.28562 292.333562 
L 211.564959 292.309664 
L 214.844298 292.285945 
L 218.123636 292.2624 
L 221.402975 292.239026 
L 224.682314 292.215819 
L 227.961653 292.192775 
L 231.240992 292.169891 
L 234.520331 292.147164 
L 237.799669 292.12459 
L 241.079008 292.102167 
L 244.358347 292.079892 
L 247.637686 292.057761 
L 250.917025 292.035772 
L 254.196364 292.013922 
L 257.475702 291.992209 
L 260.755041 291.97063 
L 264.03438 291.949183 
L 267.313719 291.927864 
L 270.593058 291.906673 
L 273.872397 291.885606 
L 277.151736 291.864662 
L 280.431074 291.843838 
L 283.710413 291.823132 
L 286.989752 291.802543 
L 290.269091 291.782068 
L 293.54843 291.761705 
L 296.827769 291.741454 
L 300.107107 291.721311 
L 303.386446 291.701275 
L 306.665785 291.681345 
L 309.945124 291.661518 
L 313.224463 291.641794 
L 316.503802 291.62217 
L 319.78314 291.602646 
L 323.062479 291.583219 
L 326.341818 291.563888 
L 329.621157 291.544652 
L 332.900496 291.52551 
L 336.179835 291.506459 
L 339.459174 291.487499 
L 342.738512 291.468629 
L 346.017851 291.449847 
L 349.29719 291.431151 
L 352.576529 291.412542 
L 355.855868 291.394017 
L 359.135207 291.375576 
L 362.414545 291.357216 
L 365.693884 291.338939 
L 368.973223 291.320741 
L 372.252562 291.302622 
L 375.531901 291.284582 
L 378.81124 291.266618 
L 382.090579 291.248731 
L 385.369917 291.230919 
L 388.649256 291.213181 
L 391.928595 291.195516 
L 395.207934 291.177924 
L 398.487273 291.160403 
" style="fill:none;stroke:#ff7f0e;stroke-linecap:square;stroke-width:1.5;"/>
   </g>
   <g id="line2d_20">
    <path clip-path="url(#p83d2c856b6)" d="M 73.832727 293.55264 
L 77.112066 293.393088 
L 80.391405 293.227217 
L 83.670744 293.055027 
L 86.950083 292.876518 
L 90.229421 292.69169 
L 93.50876 292.500543 
L 96.788099 292.303078 
L 100.067438 292.099293 
L 103.346777 291.88919 
L 106.626116 291.672768 
L 109.905455 291.450027 
L 113.184793 291.220967 
L 116.464132 290.985588 
L 119.743471 290.74389 
L 123.02281 290.495873 
L 126.302149 290.241537 
L 129.581488 289.980883 
L 132.860826 289.713909 
L 136.140165 289.440617 
L 139.419504 289.161006 
L 142.698843 288.875076 
L 145.978182 288.582827 
L 149.257521 288.284259 
L 152.53686 287.979372 
L 155.816198 287.668166 
L 159.095537 287.350642 
L 162.374876 287.026798 
L 165.654215 286.696636 
L 168.933554 286.360154 
L 172.212893 286.017354 
L 175.492231 285.668235 
L 178.77157 285.312797 
L 182.050909 284.95104 
L 185.330248 284.582964 
L 188.609587 284.208569 
L 191.888926 283.827856 
L 195.168264 283.440823 
L 198.447603 283.047472 
L 201.726942 282.647802 
L 205.006281 282.241812 
L 208.28562 281.829504 
L 211.564959 281.410877 
L 214.844298 280.985931 
L 218.123636 280.554667 
L 221.402975 280.117083 
L 224.682314 279.67318 
L 227.961653 279.222959 
L 231.240992 278.766419 
L 234.520331 278.303559 
L 237.799669 277.834381 
L 241.079008 277.358884 
L 244.358347 276.877068 
L 247.637686 276.388933 
L 250.917025 275.894479 
L 254.196364 275.393707 
L 257.475702 274.886615 
L 260.755041 274.373205 
L 264.03438 273.853475 
L 267.313719 273.327427 
L 270.593058 272.79506 
L 273.872397 272.256374 
L 277.151736 271.711369 
L 280.431074 271.160045 
L 283.710413 270.602402 
L 286.989752 270.038441 
L 290.269091 269.46816 
L 293.54843 268.891561 
L 296.827769 268.308642 
L 300.107107 267.719405 
L 303.386446 267.123849 
L 306.665785 266.521974 
L 309.945124 265.91378 
L 313.224463 265.299267 
L 316.503802 264.678435 
L 319.78314 264.051285 
L 323.062479 263.417815 
L 326.341818 262.778027 
L 329.621157 262.131919 
L 332.900496 261.479493 
L 336.179835 260.820748 
L 339.459174 260.155684 
L 342.738512 259.484301 
L 346.017851 258.806599 
L 349.29719 258.122579 
L 352.576529 257.432239 
L 355.855868 256.73558 
L 359.135207 256.032603 
L 362.414545 255.323307 
L 365.693884 254.607691 
L 368.973223 253.885757 
L 372.252562 253.157504 
L 375.531901 252.422932 
L 378.81124 251.682042 
L 382.090579 250.934832 
L 385.369917 250.181303 
L 388.649256 249.421456 
L 391.928595 248.655289 
L 395.207934 247.882804 
L 398.487273 247.104 
" style="fill:none;stroke:#2ca02c;stroke-linecap:square;stroke-width:1.5;"/>
   </g>
   <g id="line2d_21">
    <path clip-path="url(#p83d2c856b6)" d="M 73.832727 293.55264 
L 77.112066 293.308445 
L 80.391405 293.044527 
L 83.670744 292.760121 
L 86.950083 292.45446 
L 90.229421 292.126779 
L 93.50876 291.776312 
L 96.788099 291.402292 
L 100.067438 291.003954 
L 103.346777 290.580532 
L 106.626116 290.13126 
L 109.905455 289.655372 
L 113.184793 289.152102 
L 116.464132 288.620684 
L 119.743471 288.060353 
L 123.02281 287.470342 
L 126.302149 286.849885 
L 129.581488 286.198217 
L 132.860826 285.514571 
L 136.140165 284.798182 
L 139.419504 284.048283 
L 142.698843 283.26411 
L 145.978182 282.444895 
L 149.257521 281.589873 
L 152.53686 280.698278 
L 155.816198 279.769344 
L 159.095537 278.802305 
L 162.374876 277.796396 
L 165.654215 276.75085 
L 168.933554 275.664901 
L 172.212893 274.537783 
L 175.492231 273.368731 
L 178.77157 272.156979 
L 182.050909 270.90176 
L 185.330248 269.602309 
L 188.609587 268.25786 
L 191.888926 266.867646 
L 195.168264 265.430903 
L 198.447603 263.946863 
L 201.726942 262.414762 
L 205.006281 260.833833 
L 208.28562 259.20331 
L 211.564959 257.522427 
L 214.844298 255.790418 
L 218.123636 254.006519 
L 221.402975 252.169961 
L 224.682314 250.27998 
L 227.961653 248.33581 
L 231.240992 246.336685 
L 234.520331 244.281838 
L 237.799669 242.170504 
L 241.079008 240.001918 
L 244.358347 237.775312 
L 247.637686 235.489921 
L 250.917025 233.14498 
L 254.196364 230.739721 
L 257.475702 228.273381 
L 260.755041 225.745191 
L 264.03438 223.154387 
L 267.313719 220.500202 
L 270.593058 217.781872 
L 273.872397 214.998628 
L 277.151736 212.149707 
L 280.431074 209.234341 
L 283.710413 206.251765 
L 286.989752 203.201214 
L 290.269091 200.08192 
L 293.54843 196.893118 
L 296.827769 193.634043 
L 300.107107 190.303928 
L 303.386446 186.902007 
L 306.665785 183.427515 
L 309.945124 179.879685 
L 313.224463 176.257751 
L 316.503802 172.560949 
L 319.78314 168.788511 
L 323.062479 164.939672 
L 326.341818 161.013665 
L 329.621157 157.009726 
L 332.900496 152.927087 
L 336.179835 148.764984 
L 339.459174 144.52265 
L 342.738512 140.199319 
L 346.017851 135.794225 
L 349.29719 131.306603 
L 352.576529 126.735686 
L 355.855868 122.080708 
L 359.135207 117.340904 
L 362.414545 112.515508 
L 365.693884 107.603754 
L 368.973223 102.604875 
L 372.252562 97.518106 
L 375.531901 92.342681 
L 378.81124 87.077835 
L 382.090579 81.7228 
L 385.369917 76.276811 
L 388.649256 70.739103 
L 391.928595 65.108909 
L 395.207934 59.385463 
L 398.487273 53.568 
" style="fill:none;stroke:#d62728;stroke-linecap:square;stroke-width:1.5;"/>
   </g>
   <g id="patch_3">
    <path d="M 57.6 307.584 
L 57.6 41.472 
" style="fill:none;stroke:#000000;stroke-linecap:square;stroke-linejoin:miter;stroke-width:0.8;"/>
   </g>
   <g id="patch_4">
    <path d="M 414.72 307.584 
L 414.72 41.472 
" style="fill:none;stroke:#000000;stroke-linecap:square;stroke-linejoin:miter;stroke-width:0.8;"/>
   </g>
   <g id="patch_5">
    <path d="M 57.6 307.584 
L 414.72 307.584 
" style="fill:none;stroke:#000000;stroke-linecap:square;stroke-linejoin:miter;stroke-width:0.8;"/>
   </g>
   <g id="patch_6">
    <path d="M 57.6 41.472 
L 414.72 41.472 
" style="fill:none;stroke:#000000;stroke-linecap:square;stroke-linejoin:miter;stroke-width:0.8;"/>
   </g>
   <g id="legend_1">
    <g id="patch_7">
     <path d="M 64.6 127.150125 
L 161.1 127.150125 
Q 163.1 127.150125 163.1 125.150125 
L 163.1 48.472 
Q 163.1 46.472 161.1 46.472 
L 64.6 46.472 
Q 62.6 46.472 62.6 48.472 
L 62.6 125.150125 
Q 62.6 127.150125 64.6 127.150125 
z
" style="fill:#ffffff;opacity:0.8;stroke:#cccccc;stroke-linejoin:miter;"/>
    </g>
    <g id="line2d_22">
     <path d="M 66.6 54.570438 
L 86.6 54.570438 
" style="fill:none;stroke:#1f77b4;stroke-linecap:square;stroke-width:1.5;"/>
    </g>
    <g id="line2d_23"/>
    <g id="text_19">
     <!-- y = x -->
     <defs>
      <path id="DejaVuSans-20"/>
      <path d="M 10.59375 45.40625 
L 73.1875 45.40625 
L 73.1875 37.203125 
L 10.59375 37.203125 
z
M 10.59375 25.484375 
L 73.1875 25.484375 
L 73.1875 17.1875 
L 10.59375 17.1875 
z
" id="DejaVuSans-3d"/>
     </defs>
     <g transform="translate(94.6 58.070438)scale(0.1 -0.1)">
      <use xlink:href="#DejaVuSans-79"/>
      <use x="59.179688" xlink:href="#DejaVuSans-20"/>
      <use x="90.966797" xlink:href="#DejaVuSans-3d"/>
      <use x="174.755859" xlink:href="#DejaVuSans-20"/>
      <use x="206.542969" xlink:href="#DejaVuSans-78"/>
     </g>
    </g>
    <g id="line2d_24">
     <path d="M 66.6 69.250125 
L 86.6 69.250125 
" style="fill:none;stroke:#00ffff;stroke-linecap:square;stroke-width:1.5;"/>
    </g>
    <g id="line2d_25"/>
    <g id="text_20">
     <!-- y = $x*log(x)$ -->
     <defs>
      <path d="M 60.015625 54.6875 
L 34.90625 27.875 
L 50.296875 0 
L 39.984375 0 
L 28.421875 21.6875 
L 8.296875 0 
L -2.59375 0 
L 24.3125 28.8125 
L 10.015625 54.6875 
L 20.3125 54.6875 
L 30.8125 34.90625 
L 49.125 54.6875 
z
" id="DejaVuSans-Oblique-78"/>
      <path d="M 47.015625 60.890625 
L 29.5 51.421875 
L 47.015625 41.890625 
L 44.1875 37.109375 
L 27.78125 47.015625 
L 27.78125 28.609375 
L 22.21875 28.609375 
L 22.21875 47.015625 
L 5.8125 37.109375 
L 2.984375 41.890625 
L 20.515625 51.421875 
L 2.984375 60.890625 
L 5.8125 65.71875 
L 22.21875 55.8125 
L 22.21875 74.21875 
L 27.78125 74.21875 
L 27.78125 55.8125 
L 44.1875 65.71875 
z
" id="DejaVuSans-2a"/>
      <path d="M 18.3125 75.984375 
L 27.296875 75.984375 
L 12.5 0 
L 3.515625 0 
z
" id="DejaVuSans-Oblique-6c"/>
      <path d="M 25.390625 -1.421875 
Q 15.765625 -1.421875 10.171875 4.515625 
Q 4.59375 10.453125 4.59375 20.703125 
Q 4.59375 26.65625 6.515625 32.828125 
Q 8.453125 39.015625 11.53125 43.21875 
Q 16.359375 49.75 22.3125 52.875 
Q 28.265625 56 35.796875 56 
Q 45.125 56 50.859375 50.1875 
Q 56.59375 44.390625 56.59375 35.015625 
Q 56.59375 28.515625 54.6875 22.0625 
Q 52.78125 15.625 49.703125 11.375 
Q 44.921875 4.828125 38.96875 1.703125 
Q 33.015625 -1.421875 25.390625 -1.421875 
z
M 13.921875 21 
Q 13.921875 13.578125 17.015625 9.890625 
Q 20.125 6.203125 26.421875 6.203125 
Q 35.453125 6.203125 41.375 14.078125 
Q 47.3125 21.96875 47.3125 34.078125 
Q 47.3125 41.15625 44.140625 44.765625 
Q 40.96875 48.390625 34.8125 48.390625 
Q 29.734375 48.390625 25.78125 46.015625 
Q 21.828125 43.65625 18.703125 38.8125 
Q 16.40625 35.203125 15.15625 30.5625 
Q 13.921875 25.921875 13.921875 21 
z
" id="DejaVuSans-Oblique-6f"/>
      <path d="M 59.625 54.6875 
L 50.296875 6.78125 
Q 47.609375 -7.125 40.015625 -13.953125 
Q 32.421875 -20.796875 19.578125 -20.796875 
Q 14.84375 -20.796875 10.78125 -20.09375 
Q 6.734375 -19.390625 3.21875 -17.921875 
L 4.890625 -9.1875 
Q 8.203125 -11.328125 11.90625 -12.34375 
Q 15.625 -13.375 19.828125 -13.375 
Q 28.375 -13.375 33.859375 -8.703125 
Q 39.359375 -4.046875 41.109375 4.6875 
L 41.890625 8.796875 
Q 38.140625 4.5 33.15625 2.25 
Q 28.171875 0 22.40625 0 
Q 14.109375 0 9.34375 5.484375 
Q 4.59375 10.984375 4.59375 20.609375 
Q 4.59375 28.171875 7.46875 35.421875 
Q 10.359375 42.671875 15.578125 48.296875 
Q 19.046875 52 23.65625 54 
Q 28.265625 56 33.296875 56 
Q 38.8125 56 42.90625 53.4375 
Q 47.015625 50.875 49.03125 46.1875 
L 50.59375 54.6875 
z
M 46.09375 34.625 
Q 46.09375 41.265625 42.96875 44.875 
Q 39.84375 48.484375 34.078125 48.484375 
Q 30.515625 48.484375 27.296875 47.0625 
Q 24.078125 45.65625 21.78125 43.109375 
Q 18.0625 38.921875 15.984375 33.234375 
Q 13.921875 27.546875 13.921875 21.484375 
Q 13.921875 14.75 17.0625 11.125 
Q 20.21875 7.515625 26.125 7.515625 
Q 34.671875 7.515625 40.375 15.25 
Q 46.09375 23 46.09375 34.625 
z
" id="DejaVuSans-Oblique-67"/>
      <path d="M 31 75.875 
Q 24.46875 64.65625 21.28125 53.65625 
Q 18.109375 42.671875 18.109375 31.390625 
Q 18.109375 20.125 21.3125 9.0625 
Q 24.515625 -2 31 -13.1875 
L 23.1875 -13.1875 
Q 15.875 -1.703125 12.234375 9.375 
Q 8.59375 20.453125 8.59375 31.390625 
Q 8.59375 42.28125 12.203125 53.3125 
Q 15.828125 64.359375 23.1875 75.875 
z
" id="DejaVuSans-28"/>
      <path d="M 8.015625 75.875 
L 15.828125 75.875 
Q 23.140625 64.359375 26.78125 53.3125 
Q 30.421875 42.28125 30.421875 31.390625 
Q 30.421875 20.453125 26.78125 9.375 
Q 23.140625 -1.703125 15.828125 -13.1875 
L 8.015625 -13.1875 
Q 14.5 -2 17.703125 9.0625 
Q 20.90625 20.125 20.90625 31.390625 
Q 20.90625 42.671875 17.703125 53.65625 
Q 14.5 64.65625 8.015625 75.875 
z
" id="DejaVuSans-29"/>
     </defs>
     <g transform="translate(94.6 72.750125)scale(0.1 -0.1)">
      <use transform="translate(0 0.015625)" xlink:href="#DejaVuSans-79"/>
      <use transform="translate(59.179688 0.015625)" xlink:href="#DejaVuSans-20"/>
      <use transform="translate(90.966797 0.015625)" xlink:href="#DejaVuSans-3d"/>
      <use transform="translate(174.755859 0.015625)" xlink:href="#DejaVuSans-20"/>
      <use transform="translate(206.542969 0.015625)" xlink:href="#DejaVuSans-Oblique-78"/>
      <use transform="translate(285.205078 0.015625)" xlink:href="#DejaVuSans-2a"/>
      <use transform="translate(354.6875 0.015625)" xlink:href="#DejaVuSans-Oblique-6c"/>
      <use transform="translate(382.470703 0.015625)" xlink:href="#DejaVuSans-Oblique-6f"/>
      <use transform="translate(443.652344 0.015625)" xlink:href="#DejaVuSans-Oblique-67"/>
      <use transform="translate(507.128906 0.015625)" xlink:href="#DejaVuSans-28"/>
      <use transform="translate(546.142578 0.015625)" xlink:href="#DejaVuSans-Oblique-78"/>
      <use transform="translate(605.322266 0.015625)" xlink:href="#DejaVuSans-29"/>
     </g>
    </g>
    <g id="line2d_26">
     <path d="M 66.6 85.150125 
L 86.6 85.150125 
" style="fill:none;stroke:#ff7f0e;stroke-linecap:square;stroke-width:1.5;"/>
    </g>
    <g id="line2d_27"/>
    <g id="text_21">
     <!-- y = $\sqrt{x}$ -->
     <defs>
      <path d="M 54.5 81.109375 
L 63.71875 81.109375 
L 63.71875 76.421875 
L 58.109375 76.421875 
L 29.109375 -2 
L 25.875 -2 
L 10.296875 41.109375 
L 4.203125 38.921875 
L 2.984375 42.828125 
L 16.796875 47.609375 
L 29.296875 12.984375 
z
" id="DejaVuSans-221a"/>
     </defs>
     <g transform="translate(94.6 88.650125)scale(0.1 -0.1)">
      <use transform="translate(0 0.890625)" xlink:href="#DejaVuSans-79"/>
      <use transform="translate(59.179688 0.890625)" xlink:href="#DejaVuSans-20"/>
      <use transform="translate(90.966797 0.890625)" xlink:href="#DejaVuSans-3d"/>
      <use transform="translate(174.755859 0.890625)" xlink:href="#DejaVuSans-20"/>
      <use transform="translate(206.542969 0.890625)" xlink:href="#DejaVuSans-221a"/>
      <use transform="translate(282.763672 1.0625)" xlink:href="#DejaVuSans-Oblique-78"/>
      <path d="M 270.263672 75.5 
L 270.263672 81.75 
L 354.443359 81.75 
L 354.443359 75.5 
L 270.263672 75.5 
z
"/>
     </g>
    </g>
    <g id="line2d_28">
     <path d="M 66.6 101.350125 
L 86.6 101.350125 
" style="fill:none;stroke:#2ca02c;stroke-linecap:square;stroke-width:1.5;"/>
    </g>
    <g id="line2d_29"/>
    <g id="text_22">
     <!-- y = $x^2$ -->
     <g transform="translate(94.6 104.850125)scale(0.1 -0.1)">
      <use transform="translate(0 0.765625)" xlink:href="#DejaVuSans-79"/>
      <use transform="translate(59.179688 0.765625)" xlink:href="#DejaVuSans-20"/>
      <use transform="translate(90.966797 0.765625)" xlink:href="#DejaVuSans-3d"/>
      <use transform="translate(174.755859 0.765625)" xlink:href="#DejaVuSans-20"/>
      <use transform="translate(206.542969 0.765625)" xlink:href="#DejaVuSans-Oblique-78"/>
      <use transform="translate(270.188802 39.046875)scale(0.7)" xlink:href="#DejaVuSans-32"/>
     </g>
    </g>
    <g id="line2d_30">
     <path d="M 66.6 117.550125 
L 86.6 117.550125 
" style="fill:none;stroke:#d62728;stroke-linecap:square;stroke-width:1.5;"/>
    </g>
    <g id="line2d_31"/>
    <g id="text_23">
     <!-- y = $x^3$ -->
     <g transform="translate(94.6 121.050125)scale(0.1 -0.1)">
      <use transform="translate(0 0.765625)" xlink:href="#DejaVuSans-79"/>
      <use transform="translate(59.179688 0.765625)" xlink:href="#DejaVuSans-20"/>
      <use transform="translate(90.966797 0.765625)" xlink:href="#DejaVuSans-3d"/>
      <use transform="translate(174.755859 0.765625)" xlink:href="#DejaVuSans-20"/>
      <use transform="translate(206.542969 0.765625)" xlink:href="#DejaVuSans-Oblique-78"/>
      <use transform="translate(270.188802 39.046875)scale(0.7)" xlink:href="#DejaVuSans-33"/>
     </g>
    </g>
   </g>
  </g>
 </g>
 <defs>
  <clipPath id="p83d2c856b6">
   <rect height="266.112" width="357.12" x="57.6" y="41.472"/>
  </clipPath>
 </defs>
</svg>
